<?xml version="1.0" encoding="utf-8"?>
<!-- Generator: Adobe Illustrator 28.1.0, SVG Export Plug-In . SVG Version: 6.00 Build 0)  -->
<svg version="1.1" id="Layer_1" xmlns="http://www.w3.org/2000/svg" xmlns:xlink="http://www.w3.org/1999/xlink" x="0px" y="0px"
	 viewBox="0 0 128 128" style="enable-background:new 0 0 128 128;" xml:space="preserve">
<style type="text/css">
	.st0{fill-rule:evenodd;clip-rule:evenodd;fill:#FFEDB3;}
	.st1{fill-rule:evenodd;clip-rule:evenodd;fill:url(#SVGID_1_);}
	.st2{fill:url(#SVGID_00000094592201163405946770000015497391192079858817_);}
</style>
<g>
	<path id="a" class="st0" d="M44.3,39.7l13.8-27.6c1.6-3.2,5.4-4.5,8.6-2.9c1.2,0.6,2.2,1.7,2.9,2.9l13,26.6
		c1.1,2.1,3.1,3.6,5.5,3.9l27.2,3.2c3.7,0.5,6.4,3.9,5.9,7.6c-0.2,1.5-0.9,2.9-2,4.1L97.6,78.9c-0.9,0.8-1.2,2.1-1.1,3.3l3.6,28.8
		c0.6,4.1-2.4,7.9-6.4,8.4c-1.6,0.2-3.1-0.1-4.5-0.9l-22.7-12.5c-1.6-0.9-3.6-0.9-5.3-0.1l-23.5,12.2c-3.3,1.7-7.4,0.4-9.1-3
		c-0.7-1.2-0.9-2.7-0.7-4.1l1.9-13.2c0.9-6.5,4.9-12,10.7-15l26.2-13.4c0.7-0.4,0.9-1.2,0.6-1.9c-0.3-0.6-0.9-0.9-1.5-0.7l-32,4.6
		c-4.9,0.7-9.9-0.7-13.7-3.9L9.4,58.8c-3.1-2.5-3.5-7-1.1-10.1c1.2-1.4,2.8-2.3,4.6-2.6l27.3-3.6C42,42.4,43.5,41.2,44.3,39.7z"/>
	<linearGradient id="SVGID_1_" gradientUnits="userSpaceOnUse" x1="67.2612" y1="17.1289" x2="67.2612" y2="112.666">
		<stop  offset="0" style="stop-color:#FFD951"/>
		<stop  offset="1" style="stop-color:#FFB222"/>
	</linearGradient>
	<path class="st1" d="M118.1,52.4L91,49.1c-3.3-0.4-6.2-2.5-7.6-5.4l-13-26.6c-0.4-0.7-1-1.3-1.6-1.7c-0.9-0.5-1.8-0.5-2.7-0.2
		c-0.9,0.3-1.6,1-2.1,1.8L50.1,44.7c-1.3,2.4-3.6,4.1-6.2,4.3l-27.3,3.6c-1.1,0.1-2.1,0.7-2.9,1.6c-1.4,1.8-1.1,4.6,0.7,6.1
		l10.7,8.7c3.2,2.7,7.4,3.8,11.5,3.3l32-4.6c1.6-0.3,3.4,0.5,4.3,2.1c1,2.2,0.2,4.7-1.7,5.7L44.9,89c-4.9,2.6-8.4,7.4-9.2,13
		l-1.9,13.2c-0.1,0.8,0,1.7,0.4,2.3c0.5,1.1,1.3,1.8,2.3,2.1c1,0.3,2.1,0.2,3-0.2l23.5-12.2c1.2-0.6,2.5-0.9,3.9-0.9
		c1.4,0,2.8,0.3,4,1l22.7,12.5c0.9,0.5,1.8,0.6,2.8,0.6c1.2-0.2,2.3-0.8,3.1-1.8c0.8-1,1.1-2.3,0.9-3.5L97,86.3
		c-0.2-2.3,0.5-4.3,2-5.7l21.5-21.3c0.7-0.7,1.1-1.5,1.2-2.4C121.9,54.7,120.4,52.7,118.1,52.4z"/>
	
		<linearGradient id="SVGID_00000008842327836863687790000016713105181729703587_" gradientUnits="userSpaceOnUse" x1="-163.934" y1="392.9969" x2="-163.934" y2="389.5359" gradientTransform="matrix(18.3386 0 0 -17.7803 3070.3188 7020.7612)">
		<stop  offset="0" style="stop-color:#E58F0D"/>
		<stop  offset="0.9996" style="stop-color:#EB7915"/>
	</linearGradient>
	<path style="fill:url(#SVGID_00000008842327836863687790000016713105181729703587_);" d="M92.8,122.3c-1.7,0-3.4-0.4-4.9-1.3
		l-22.7-12.5c-0.8-0.4-1.8-0.5-2.7,0l-23.5,12.2c-2.3,1.2-4.9,1.4-7.3,0.6c-2.4-0.8-4.4-2.5-5.5-4.8c-0.9-1.6-1.2-3.6-1-5.7L27,97.5
		c1.1-7.3,5.6-13.7,12.1-17.1l19-9.7l-24,3.5c-5.7,0.8-11.5-0.8-15.8-4.5L7.6,60.9c-4.2-3.4-4.8-9.7-1.5-14c1.7-2,4-3.3,6.4-3.6
		l27.4-3.6c0.8-0.1,1.5-0.6,1.9-1.4l13.8-27.6c1.1-2.2,3-3.9,5.3-4.6c2.3-0.8,4.8-0.6,7,0.5c1.7,0.9,3.2,2.3,4.1,4.2l13,26.6
		c0.6,1.3,1.9,2.2,3.4,2.4l27.2,3.2c5.2,0.7,9,5.5,8.4,10.7c-0.3,2.1-1.2,4.2-2.8,5.7L99.6,80.9c-0.2,0.2-0.4,0.6-0.3,1.1l3.5,28.7
		c0.4,2.7-0.4,5.4-2.1,7.6c-1.7,2.2-4.1,3.6-6.8,3.9C93.6,122.2,93.2,122.3,92.8,122.3z M63.7,102.6c1.4,0,2.8,0.3,4,1l22.7,12.5
		c0.9,0.5,1.8,0.6,2.8,0.6c1.2-0.2,2.3-0.8,3.1-1.8c0.8-1,1.1-2.3,0.9-3.5l-3.6-28.8c-0.2-2.3,0.5-4.3,2-5.7l21.5-21.3
		c0.7-0.7,1.1-1.5,1.2-2.4c0.3-2.2-1.3-4.2-3.5-4.5l-27.2-3.2C84.4,45,81.5,43,80.1,40l-13-26.6c-0.4-0.7-1-1.3-1.6-1.7
		c-0.9-0.5-1.8-0.5-2.7-0.2c-0.9,0.3-1.6,1-2.1,1.8L46.8,41c-1.3,2.4-3.6,4.1-6.2,4.3l-27.3,3.6c-1.1,0.1-2.1,0.7-2.9,1.6
		c-1.4,1.8-1.1,4.6,0.7,6.1l10.7,8.7c3.2,2.7,7.4,3.8,11.5,3.3l32-4.6c1.6-0.3,3.4,0.5,4.3,2.1c1,2.2,0.2,4.7-1.7,5.7L41.7,85.3
		c-4.9,2.6-8.4,7.4-9.2,13l-1.9,13.2c-0.1,0.8,0,1.7,0.4,2.3c0.5,1.1,1.3,1.8,2.3,2.1c1,0.3,2.1,0.2,3-0.2l23.5-12.2
		C61.1,102.9,62.4,102.6,63.7,102.6z M66.2,69.5l-0.1,0C66.1,69.5,66.2,69.5,66.2,69.5z"/>
</g>
</svg>
